<svg xmlns="http://www.w3.org/2000/svg" width="2500" height="2585" fill="none" style=""><rect id="backgroundrect" width="100%" height="100%" x="0" y="0" fill="none" stroke="none" class="" style=""/>

<g class="currentLayer" style=""><title>Layer 1</title><g id="38" class="selected">
<path id="Oval (Stroke)" fill-rule="evenodd" clip-rule="evenodd" d="M72.89837256767048,837.177 C72.89837256767048,832.082 68.78074116840081,827.952 63.69601474315286,827.952 C58.62125836971965,827.952 54.50362697044997,832.082 54.50362697044997,837.177 C54.50362697044997,842.273 58.62125836971965,846.403 63.69601474315286,846.403 C68.78074116840081,846.403 72.89837256767048,842.273 72.89837256767048,837.177 zM63.69601474315286,835.861 C64.42382852559057,835.861 65.01206158262897,836.45 65.01206158262897,837.177 C65.01206158262897,837.904 64.42382852559057,838.493 63.69601474315286,838.493 C62.97817101253032,838.493 62.38993795549148,837.904 62.38993795549148,837.177 C62.38993795549148,836.45 62.97817101253032,835.861 63.69601474315286,835.861 z" fill="black"/>
<path id="Shape (Stroke)" fill-rule="evenodd" clip-rule="evenodd" d="M291.9802911331635,179.125 C290.2155919620479,180.403 289.8167898894794,182.875 291.0929565216988,184.646 C307.13476989076565,206.935 325.52951548798706,236.774 340.2851921730203,268.433 C355.07077901349646,300.148 366.0677461645726,333.39 367.6031341439607,362.564 C367.71280471391714,364.745 369.57720440317485,366.42 371.75067569867286,366.305 C373.9241469941717,366.19 375.58914564714473,364.329 375.4794750771888,362.147 C373.86432668328587,331.506 362.39876709694204,297.196 347.43371932381024,265.083 C332.42879134342127,232.913 313.7748243990307,202.648 297.4837597346085,180.016 C296.20759310238964,178.245 293.74499030427916,177.846 291.9802911331635,179.125 zM83.03791526272435,271.082 C84.48357277578505,284.018 88.10270158434415,297.558 92.97805692149355,309.501 L92.99799702512172,309.563 L93.02790718056461,309.624 C106.70681826966319,340.178 134.2042211732601,383.839 172.38951962169162,415.672 C195.94875205867444,435.306 223.72531641306867,450.55 254.9016684361096,455.304 C256.51681683001203,468.687 257.49388190780417,480.87 257.94253423944366,491.188 C258.16187537935696,541.042 236.71629392698674,623.164 164.2539573412948,666.958 C162.38955765203704,668.085 161.7813844913696,670.516 162.9080003463758,672.387 C164.03461620138197,674.258 166.45733879223522,674.86 168.32173848149299,673.733 C244.07419216587516,627.954 266.0780965198409,542.514 265.82884522448563,491.074 L265.82884522448563,490.999 L265.82884522448563,490.924 C265.3901629446604,480.903 264.4729181777528,469.164 262.9574703019924,456.288 C280.0660792151806,457.861 298.14178315434657,456.236 317.0450013940924,450.459 C329.8166377680976,446.555 340.29516222483466,441.024 348.67000574877244,434.095 C349.93620232917743,433.055 350.384854660817,431.398 349.94617238099175,429.923 C351.37188979042384,430.484 353.056828547026,430.179 354.20338450565987,429.013 C359.776643469805,423.327 364.1435261644291,416.932 367.44361331493366,409.975 C368.3807981854695,408.002 367.54331383307533,405.643 365.5692435738621,404.706 C363.60514336646173,403.768 361.2522111383077,404.607 360.3150262677719,406.58 C357.3838310343938,412.773 353.51545093047935,418.435 348.5802752824446,423.468 C347.5433898937667,424.529 347.21437818389785,426.029 347.6131802564659,427.361 C346.3170735206188,426.855 344.801625644858,427.045 343.6550696862241,427.991 C336.1875008773788,434.164 326.67607144662094,439.246 314.7419194250094,442.892 C296.29732356871745,448.532 278.6603019093762,449.996 261.9604651205717,448.234 C258.13196522391405,419.265 251.42212035294938,385.482 240.7940451189992,352.872 C224.33348957373568,302.381 198.20198376868638,253.754 157.98279475015488,230.893 C138.2720023134587,219.69 122.75860169054484,215.386 110.83441972074759,216.722 C98.50146562656715,218.105 90.62512469333952,225.441 86.40779277592814,235.624 C82.29016137665847,245.56 81.61219785329183,258.219 83.03791526272435,271.082 zM253.8548129956169,447.118 C250.03628315077398,419.065 243.4959291606511,386.624 233.2965661547123,355.329 C216.9855613866615,305.283 191.63171962312055,259.115 154.09447454261235,237.775 C134.92206490388304,226.877 121.18333350389955,223.522 111.71178428039805,224.583 C102.64900718127886,225.599 96.97604769899208,230.716 93.68593060030267,238.658 C90.29611298347069,246.847 89.51844894196194,257.985 90.8843460405091,270.205 C92.23030303542768,282.329 95.64006075588824,295.133 100.2462246940542,306.444 C113.58615402146968,336.194 140.41556345351378,378.733 177.4343658396828,409.588 C199.60776107448987,428.071 225.28064449608576,442.257 253.8548129956169,447.118 zM371.63103507690255,375.832 C369.4575637814046,375.636 367.54331383307533,377.241 367.3439127967915,379.416 C366.7756198433813,385.759 365.63903393656085,391.789 363.8743347654456,397.448 C363.2262813975223,399.532 364.3828074079705,401.751 366.45657818532635,402.405 C368.5403190144969,403.058 370.7437004654378,401.898 371.4017238851759,399.813 C373.3558540407614,393.547 374.59214046572356,386.955 375.2003136263906,380.126 C375.3997146626744,377.95 373.79453632058664,376.028 371.63103507690255,375.832 zM154.61291723695152,676.883 C153.6657623146014,674.917 151.3028600346335,674.097 149.34872987904836,675.05 C145.8691817958877,676.739 142.27996314277152,678.349 138.59104397151364,679.871 C136.56712345322796,680.702 135.609998479064,683.012 136.4375127796434,685.033 C137.2650270802228,687.053 139.56810904930578,688.018 141.5820595157767,687.187 C145.4205294642482,685.605 149.159298894578,683.93 152.78839775495052,682.167 C154.7425279105361,681.214 155.5600721593016,678.848 154.61291723695152,676.883 zM135.42056749459363,685.424 C134.68278366034207,683.369 132.42955195033014,682.304 130.375721276602,683.045 C124.00485816732085,685.349 117.32492345179904,687.401 110.34588718185087,689.172 C108.23223619723782,689.707 106.95606956501891,691.858 107.48448231117196,693.976 C108.02286510913929,696.093 110.16642624919524,697.376 112.28007723380784,696.84 C119.50836479911129,695.007 126.43755080998928,692.88 133.05766521462527,690.486 C135.10152583653914,689.745 136.1683213806595,687.479 135.42056749459363,685.424 zM106.63702790696397,694.174 C106.18837557532488,692.038 104.09466469433998,690.676 101.96107360609834,691.131 C95.06179775066413,692.608 87.8634203408027,693.82 80.3659413765158,694.742 C78.33205080641628,694.993 76.8465130860984,696.763 76.90633339698374,698.783 C76.53744147985817,696.796 74.71292199785718,695.384 72.66906137594336,695.576 C57.77380396551122,696.974 41.74196064825861,697.254 24.493771009672002,696.237 C22.320299714173164,696.109 20.445929973101986,697.773 20.32628935133127,699.953 C20.196678677746693,702.134 21.851707278905913,704.005 24.02517857440432,704.133 C41.6522301819308,705.172 58.08287557175188,704.889 73.39687515838108,703.451 C75.49058603936595,703.256 77.03594407056876,701.466 76.9761237596834,699.396 C77.3549857286237,701.433 79.24929557332392,702.849 81.33303640249407,702.593 C89.03988645487995,701.644 96.46757505646808,700.394 103.6061321554437,698.867 C105.7397232436849,698.411 107.09565029041822,696.31 106.63702790696397,694.174 z" fill="#FECB4B"/>
<path id="Shape (Stroke)_2" fill-rule="evenodd" clip-rule="evenodd" d="M1971.4644323874227,1472.12 C1969.6987362111265,1473.39 1969.3009311437381,1475.87 1970.5751037655948,1477.64 C1975.9459706779116,1485.1 1982.1104537146389,1495.1 1987.047623373036,1505.69 C1992.010715166151,1516.34 1995.5929547829978,1527.28 1996.0884663581637,1536.71 C1996.145295653504,1537.79 1996.6268491561314,1538.74 1997.36263898002,1539.42 C1996.6128910835912,1540.07 1996.1044184410664,1541 1996.0087059436491,1542.06 C1995.8292450109936,1544.06 1995.4743111664081,1545.93 1994.9369253736224,1547.65 C1994.7784015497757,1548.16 1994.7265572803424,1548.68 1994.7714225135064,1549.18 C1994.4025305963805,1549.51 1994.0914649797767,1549.93 1993.863150793232,1550.41 C1992.9827952180362,1552.26 1991.8292602231327,1553.95 1990.3686476323496,1555.44 C1990.124381362902,1555.69 1989.9199953007108,1555.96 1989.7544924405947,1556.25 C1989.452399870624,1556.39 1989.1632683680114,1556.57 1988.8950739742095,1556.79 C1986.6558003367377,1558.64 1983.7405571862619,1560.23 1979.970880595309,1561.37 L1979.9648985642198,1561.37 C1974.8014087296397,1562.95 1969.8323349054365,1563.51 1965.0766201900576,1563.25 C1963.718699132962,1553.75 1961.4774314851268,1542.94 1958.063685743941,1532.47 C1952.4236274326415,1515.16 1943.280092913828,1497.82 1928.727805285804,1489.55 L1928.7268082806218,1489.55 C1921.85046354436,1485.64 1915.994055108692,1483.87 1911.1316608389016,1484.41 C1905.8594974395455,1485 1902.4537277398106,1488.23 1900.7149507034126,1492.43 C1899.0788652006995,1496.39 1898.8794641644163,1501.19 1899.3899308173031,1505.77 C1899.9083735116424,1510.43 1901.2044802474907,1515.27 1902.9432572838887,1519.53 L1902.9691794186062,1519.59 L1902.9960985585042,1519.65 C1907.7637773360595,1530.3 1917.321069005164,1545.5 1930.6789444258445,1556.63 C1938.4595728616562,1563.12 1947.6709037328067,1568.32 1958.0248025418653,1570.33 C1958.4325776610665,1574.03 1958.6888079926919,1577.42 1958.8164246559143,1580.35 C1958.8742509564368,1596.77 1951.7685950284474,1623.57 1928.2332907158188,1637.79 C1927.2881298038312,1638.36 1926.6679925809867,1639.27 1926.4317023529907,1640.27 C1925.4715863632823,1639.92 1924.3788686844437,1639.94 1923.3868485289304,1640.42 C1922.2363045495701,1640.98 1921.0658204665817,1641.51 1919.8743992747832,1642 C1919.399824808427,1642.19 1918.9840736477743,1642.47 1918.636118839458,1642.8 C1918.1535683316504,1642.79 1917.6600507668477,1642.86 1917.177500259039,1643.04 C1915.0937594298684,1643.79 1912.9093210773754,1644.47 1910.618203170469,1645.05 C1910.1356526626605,1645.17 1909.6969703828358,1645.38 1909.313123387989,1645.65 C1908.8435339475388,1645.57 1908.3510133879174,1645.58 1907.8574958231136,1645.69 C1905.5942940612874,1646.17 1903.2274037605941,1646.57 1900.7528369003055,1646.87 C1900.3071755842107,1646.93 1899.8884334080146,1647.05 1899.505583418348,1647.24 C1899.0918262680589,1647.14 1898.6541409934143,1647.11 1898.2064856669567,1647.15 C1893.2842710862806,1647.61 1887.9662454485792,1647.71 1882.2264866191374,1647.37 C1880.0530153236393,1647.25 1878.1876186292004,1648.91 1878.0609989711604,1651.09 C1877.9343793131195,1653.27 1879.594392940186,1655.14 1881.7678642356839,1655.27 C1887.8785089926143,1655.63 1893.5973307132465,1655.53 1898.9452665063902,1655.02 C1899.4308080297424,1654.98 1899.8864393976512,1654.85 1900.3001965479414,1654.64 C1900.74884887958,1654.75 1901.2234233459371,1654.78 1901.7079678641082,1654.72 C1904.4028728694889,1654.39 1907.0040593878166,1653.96 1909.5135214294544,1653.42 C1910.0499102170588,1653.3 1910.5364487455925,1653.08 1910.958181937334,1652.79 C1911.4736336161277,1652.87 1912.01500742964,1652.85 1912.5533902276068,1652.71 C1915.0927624246872,1652.07 1917.5274490777176,1651.32 1919.8594441970615,1650.47 C1920.3938389743037,1650.28 1920.8614344043906,1649.98 1921.2472754096007,1649.61 C1921.781670186842,1649.63 1922.3280290262608,1649.53 1922.855444767233,1649.32 C1924.2223388709613,1648.76 1925.5403797207996,1648.16 1926.8065763012048,1647.55 C1927.920231088853,1647.01 1928.667984974918,1646.02 1928.9331883531763,1644.9 C1930.0099539491107,1645.29 1931.2462403740733,1645.2 1932.3030658663804,1644.57 C1959.1215082414285,1628.36 1966.7884780865568,1598.24 1966.702735640955,1580.24 L1966.701738635773,1580.16 L1966.6987476202303,1580.08 C1966.5850890295476,1577.44 1966.3737239310863,1574.45 1966.047703236761,1571.21 C1971.2211631231564,1571.35 1976.6349012582737,1570.66 1982.259007486671,1568.94 C1986.8871055388279,1567.53 1990.7614676738299,1565.5 1993.9080160263954,1562.9 C1994.2878750005166,1562.59 1994.5949525963945,1562.22 1994.8252607933032,1561.81 C1995.2479909902258,1561.62 1995.6438020472497,1561.34 1995.9887658400216,1560.99 C1998.0984288039087,1558.84 1999.7464783687983,1556.42 2000.9847588041232,1553.8 C2001.2988154362706,1553.14 2001.413471032134,1552.44 2001.3526537160674,1551.76 C2001.8551443275035,1551.3 2002.2459703586208,1550.71 2002.4633174881712,1550.01 C2003.1891372602452,1547.68 2003.639783602248,1545.26 2003.8631127628862,1542.77 C2003.9777683587492,1541.49 2003.4742807421317,1540.3 2002.5999071980257,1539.5 C2003.491229830216,1538.73 2004.0296126281835,1537.57 2003.9628132810276,1536.3 C2003.3905323068925,1525.4 1999.3397002547783,1513.38 1994.1911654979187,1502.34 C1989.0157116011617,1491.24 1982.5870221913583,1480.81 1976.9688979940493,1473.01 C1975.6937283670118,1471.24 1973.2291315585387,1470.84 1971.4644323874227,1472.12 zM1956.9111477542178,1561.97 C1949.1414863754019,1559.96 1942.0438064888644,1555.82 1935.718805617929,1550.55 C1923.5324112854178,1540.39 1914.6361340515964,1526.32 1910.2174070875374,1516.48 C1908.7428364242155,1512.84 1907.6551037712857,1508.74 1907.227388548455,1504.9 C1906.7887062686302,1500.96 1907.0848168075122,1497.67 1907.9980735536942,1495.46 C1908.8096357713714,1493.5 1910.0100300098018,1492.5 1912.009025398552,1492.27 C1914.4187869220468,1492 1918.5005261347844,1492.83 1924.8394850782613,1496.43 C1936.7178048097126,1503.19 1945.0727082300218,1518.06 1950.5682007900164,1534.93 C1953.542267246196,1544.05 1955.5891188836529,1553.48 1956.9111477542178,1561.97 z" fill="black"/>
<path id="Oval (Stroke)_2" fill-rule="evenodd" clip-rule="evenodd" d="M118.29201847777775,1534.71 C118.29201847777775,1529.62 114.17438707850806,1525.49 109.08966065326013,1525.49 C104.01490427982603,1525.49 99.89727288055636,1529.62 99.89727288055636,1534.71 C99.89727288055636,1539.81 104.01490427982603,1543.94 109.08966065326013,1543.94 C114.17438707850806,1543.94 118.29201847777775,1539.81 118.29201847777775,1534.71 zM109.08966065326013,1533.4 C109.81747443569739,1533.4 110.40570749273579,1533.99 110.40570749273579,1534.71 C110.40570749273579,1535.44 109.81747443569739,1536.03 109.08966065326013,1536.03 C108.37181692263627,1536.03 107.7835838655983,1535.44 107.7835838655983,1534.71 C107.7835838655983,1533.99 108.37181692263627,1533.4 109.08966065326013,1533.4 z" fill="black"/>
<path id="Oval (Stroke)_3" fill-rule="evenodd" clip-rule="evenodd" d="M777.9804368687378,1082.59 C777.9804368687378,1077.49 773.8628054694685,1073.36 768.7780790442206,1073.36 C763.7033226707865,1073.36 759.5856912715168,1077.49 759.5856912715168,1082.59 C759.5856912715168,1087.68 763.7033226707865,1091.81 768.7780790442206,1091.81 C773.8628054694685,1091.81 777.9804368687378,1087.68 777.9804368687378,1082.59 zM768.7780790442206,1081.27 C769.5058928266575,1081.27 770.0941258836963,1081.86 770.0941258836963,1082.59 C770.0941258836963,1083.31 769.5058928266575,1083.9 768.7780790442206,1083.9 C768.0502652617829,1083.9 767.4720022565583,1083.31 767.4720022565583,1082.59 C767.4720022565583,1081.86 768.0502652617829,1081.27 768.7780790442206,1081.27 z" fill="black"/>
<path id="Oval (Stroke)_4" fill-rule="evenodd" clip-rule="evenodd" d="M2248.3228012162735,960.52 C2248.3228012162735,955.425 2244.204172811823,951.294 2239.1244314124815,951.294 C2234.044690013141,951.294 2229.9260616086895,955.425 2229.9260616086895,960.52 C2229.9260616086895,965.615 2234.044690013141,969.746 2239.1244314124815,969.746 C2244.204172811823,969.746 2248.3228012162735,965.615 2248.3228012162735,960.52 zM2239.1244314124815,959.204 C2239.8492541793757,959.204 2240.436490231232,959.793 2240.436490231232,960.52 C2240.436490231232,961.247 2239.8492541793757,961.836 2239.1244314124815,961.836 C2238.399608645589,961.836 2237.812372593731,961.247 2237.812372593731,960.52 C2237.812372593731,959.793 2238.399608645589,959.204 2239.1244314124815,959.204 z" fill="black"/>
<path id="Oval (Stroke)_5" fill-rule="evenodd" clip-rule="evenodd" d="M2207.242199720995,2147.85 C2207.242199720995,2142.75 2203.1235713165443,2138.62 2198.043829917203,2138.62 C2192.9640885178615,2138.62 2188.846457118593,2142.75 2188.846457118593,2147.85 C2188.846457118593,2152.94 2192.9640885178615,2157.07 2198.043829917203,2157.07 C2203.1235713165443,2157.07 2207.242199720995,2152.94 2207.242199720995,2147.85 zM2198.043829917203,2146.53 C2198.768652684097,2146.53 2199.3558887359522,2147.12 2199.3558887359522,2147.85 C2199.3558887359522,2148.58 2198.768652684097,2149.16 2198.043829917203,2149.16 C2197.3190071503095,2149.16 2196.7317710984526,2148.58 2196.7317710984526,2147.85 C2196.7317710984526,2147.12 2197.3190071503095,2146.53 2198.043829917203,2146.53 z" fill="black"/>
<path id="Oval (Stroke)_6" fill-rule="evenodd" clip-rule="evenodd" d="M732.3774198705324,112.631 C732.3774198705324,107.535 728.2597884712628,103.405 723.1850320978286,103.405 C718.1003056725807,103.405 713.9826742733114,107.535 713.9826742733114,112.631 C713.9826742733114,117.726 718.1003056725807,121.856 723.1850320978286,121.856 C728.2597884712628,121.856 732.3774198705324,117.726 732.3774198705324,112.631 zM723.1850320978286,111.315 C723.9028758284526,111.315 724.4911088854909,111.904 724.4911088854909,112.631 C724.4911088854909,113.357 723.9028758284526,113.947 723.1850320978286,113.947 C722.4572183153919,113.947 721.868985258353,113.357 721.868985258353,112.631 C721.868985258353,111.904 722.4572183153919,111.315 723.1850320978286,111.315 z" fill="black"/>
<path id="Oval (Stroke)_7" fill-rule="evenodd" clip-rule="evenodd" d="M1728.4623655092735,1769.09 C1728.4623655092735,1764 1724.3447341100032,1759.87 1719.264992710662,1759.87 C1714.1852513113222,1759.87 1710.0666229068706,1764 1710.0666229068706,1769.09 C1710.0666229068706,1774.19 1714.1852513113222,1778.32 1719.264992710662,1778.32 C1724.3447341100032,1778.32 1728.4623655092735,1774.19 1728.4623655092735,1769.09 zM1719.264992710662,1767.78 C1719.9898154775558,1767.78 1720.5770515294134,1768.36 1720.5770515294134,1769.09 C1720.5770515294134,1769.82 1719.9898154775558,1770.41 1719.264992710662,1770.41 C1718.5401699437693,1770.41 1717.9529338919126,1769.82 1717.9529338919126,1769.09 C1717.9529338919126,1768.36 1718.5401699437693,1767.78 1719.264992710662,1767.78 z" fill="black"/>
<path id="Oval (Stroke)_8" fill-rule="evenodd" clip-rule="evenodd" d="M1808.0423220851305,281.984 C1808.0423220851305,276.889 1803.9236936806801,272.759 1798.8439522813392,272.759 C1793.7642108819982,272.759 1789.6455824775467,276.889 1789.6455824775467,281.984 C1789.6455824775467,287.08 1793.7642108819982,291.21 1798.8439522813392,291.21 C1803.9236936806801,291.21 1808.0423220851305,287.08 1808.0423220851305,281.984 zM1798.8439522813392,280.668 C1799.5687750482327,280.668 1800.1560111000895,281.258 1800.1560111000895,281.984 C1800.1560111000895,282.711 1799.5687750482327,283.3 1798.8439522813392,283.3 C1798.1191295144463,283.3 1797.5318934625886,282.711 1797.5318934625886,281.984 C1797.5318934625886,281.258 1798.1191295144463,280.668 1798.8439522813392,280.668 z" fill="black"/>
<path id="Path (Stroke)" fill-rule="evenodd" clip-rule="evenodd" d="M1648.9272741665793,1331.94 C1647.6451255032712,1330.17 1645.1795316896162,1329.78 1643.4188205392263,1331.06 L1614.4867271795652,1352.18 C1612.7260160291753,1353.47 1612.3371840084217,1355.94 1613.6183356665474,1357.71 C1614.9004843298546,1359.47 1617.3660781435094,1359.86 1619.1267892938995,1358.58 L1648.0588826535616,1337.46 C1649.8195938039514,1336.17 1650.2084258247044,1333.7 1648.9272741665793,1331.94 z" fill="black"/>
<path id="Path (Stroke)_2" fill-rule="evenodd" clip-rule="evenodd" d="M1391.4875752562684,1.62891 C1390.211408624049,-0.137501 1387.7388357741247,-0.527974 1385.9841066548238,0.7567670000000005 L1357.0410462381662,21.8698 C1355.2763470670507,23.1545 1354.8875150462964,25.628 1356.1636816785158,27.3944 C1357.4498183625485,29.1608 1359.912421160659,29.5513 1361.677120331775,28.2666 L1390.620180748432,7.15352 C1392.374909867733,5.86878 1392.7737119403016,3.39533 1391.4875752562684,1.62891 z" fill="black"/>
<path id="Path (Stroke)_3" fill-rule="evenodd" clip-rule="evenodd" d="M819.9842651620122,2032.56 C818.7380086852362,2034.35 819.1766909650619,2036.81 820.9613302398056,2038.06 L850.3131627808451,2058.58 C852.1077721074037,2059.83 854.5604048536999,2059.39 855.8066613304763,2057.59 C857.0529178072528,2055.8 856.6142355274271,2053.34 854.8295962526832,2052.09 L825.4677936598296,2031.57 C823.6831543850857,2030.32 821.2205515869753,2030.76 819.9842651620122,2032.56 z" fill="black"/>
<path id="Path (Stroke)_4" fill-rule="evenodd" clip-rule="evenodd" d="M36.58744386031057,2426.55 C35.34118738353411,2428.34 35.779869663359776,2430.81 37.57447898991788,2432.06 L66.93628158277166,2452.57 C68.72092085751588,2453.82 71.18352365562635,2453.38 72.4297801324028,2451.59 C73.66606655736496,2449.79 73.2273842775393,2447.33 71.44274500279549,2446.08 L42.08094240994172,2425.57 C40.286333083383624,2424.32 37.83370033708703,2424.76 36.58744386031057,2426.55 z" fill="black"/>
<path id="Path (Stroke)_5" fill-rule="evenodd" clip-rule="evenodd" d="M500.5338349828485,1256.58 C499.28757850607155,1258.37 499.72626078589724,1260.84 501.5109000606411,1262.09 L530.8826727053096,1282.6 C532.6673119800538,1283.85 535.1299147781639,1283.41 536.3662012031259,1281.62 C537.6124576799024,1279.83 537.1737754000771,1277.36 535.3891361253334,1276.11 L506.02733353247925,1255.6 C504.2327242059211,1254.35 501.78009145962494,1254.79 500.5338349828485,1256.58 z" fill="black"/>
<path id="Path (Stroke)_6" fill-rule="evenodd" clip-rule="evenodd" d="M1804.804049255875,2149.7 C1803.559786789462,2151.49 1803.9994660744687,2153.96 1805.7860993595746,2155.21 L1835.1508929679733,2175.72 C1836.93752625308,2176.97 1839.3951440252827,2176.53 1840.6394064916974,2174.74 C1841.8846659632918,2172.95 1841.444986678285,2170.48 1839.6583533931782,2169.23 L1810.2935597847804,2148.72 C1808.506926499673,2147.47 1806.0493087274704,2147.91 1804.804049255875,2149.7 z" fill="black"/>
<path id="Path (Stroke)_7" fill-rule="evenodd" clip-rule="evenodd" d="M2295.071377167933,394.337 C2293.8271147015175,396.129 2294.266793986525,398.594 2296.0534272716322,399.842 L2325.4182208800303,420.358 C2327.2048541651366,421.607 2329.6624719373403,421.166 2330.906734403753,419.373 C2332.151993875349,417.581 2331.7123145903415,415.116 2329.925681305236,413.868 L2300.560887696837,393.352 C2298.77425441173,392.103 2296.316636639527,392.544 2295.071377167933,394.337 z" fill="black"/>
<path id="Path (Stroke)_8" fill-rule="evenodd" clip-rule="evenodd" d="M334.5623824316629,550.812 C333.76477828652554,552.845 334.7617834679467,555.14 336.78570398623236,555.939 L370.0956470975141,569.064 C372.12953766761314,569.863 374.412679533068,568.862 375.21028367820446,566.829 C376.0078878233414,564.796 375.01088264192026,562.501 372.98696212363586,561.702 L339.6770190123533,548.577 C337.64312844225424,547.778 335.3599865767994,548.779 334.5623824316629,550.812 z" fill="black"/>
<path id="Path (Stroke)_9" fill-rule="evenodd" clip-rule="evenodd" d="M111.7716045912834,21.7502 C109.94708510928197,20.5619 107.50442241480012,21.0844 106.31798624890901,22.9171 L86.84647505575383,53.0354 C85.66003888986228,54.8681 86.18845163601489,57.317 88.01297111801631,58.5053 C89.83749060001688,59.6935 92.28015329449873,59.1711 93.46658946038984,57.3384 L112.9381006535459,27.2201 C114.1145667676227,25.3874 113.59612407328396,22.9384 111.7716045912834,21.7502 z" fill="black"/>
<path id="Path (Stroke)_10" fill-rule="evenodd" clip-rule="evenodd" d="M2319.9217313148556,1653.66 C2318.09422081731,1652.47 2315.65255512801,1653 2314.4681129724813,1654.83 L2295.000589800051,1684.95 C2293.816147644523,1686.78 2294.336584349224,1689.23 2296.1640948467693,1690.42 C2297.991605344315,1691.6 2300.4332710336157,1691.08 2301.6177131891445,1689.25 L2321.085236361573,1659.13 C2322.269678517102,1657.3 2321.7492418124,1654.85 2319.9217313148556,1653.66 z" fill="black"/>
<path id="Path (Stroke)_11" fill-rule="evenodd" clip-rule="evenodd" d="M381.91015849735487,1071.87 C414.85120969151143,1078.11 435.0505346671047,1099.48 443.5450188128133,1117.09 C444.4921737351629,1119.06 446.8451059633174,1119.88 448.8092061707173,1118.93 C450.77330637811673,1117.98 451.59085062688183,1115.61 450.6436957045321,1113.65 C441.20205663647306,1094.09 419.0884817125518,1070.87 383.3757561140441,1064.1 C347.6331203600945,1057.33 299.0390878176256,1067.18 236.83593454875788,1112.16 L239.14898656965426,1115.37 L236.83593454875788,1112.16 C175.81921744578077,1156.29 125.7695573384365,1165.14 88.22234220611442,1158.85 C50.56545650383594,1152.54 24.94242334131109,1130.92 12.948451008814207,1113.15 C11.722134635666345,1111.34 9.269501889370625,1110.87 7.474892562812091,1112.1 C5.670313184439692,1113.32 5.201720749171572,1115.78 6.418067070505569,1117.59 C19.518715154379606,1136.98 46.956297747091135,1159.95 86.9262354702669,1166.65 C126.99587371158479,1173.36 179.13924469991264,1163.64 241.45206853873728,1118.58 L241.45206853873728,1118.58 C302.57845621167075,1074.37 348.9990174586421,1065.64 381.91015849735487,1071.87 z" fill="black"/>
<path id="Path (Stroke)_12" fill-rule="evenodd" clip-rule="evenodd" d="M176.28780988104845,1287.94 C188.62076397522844,1290.28 196.10827288770147,1298.26 199.21892905373613,1304.71 C200.16608397608582,1306.68 202.52898625605414,1307.5 204.493086463454,1306.55 C206.44721661903958,1305.6 207.26476086780468,1303.23 206.3176059454546,1301.27 C202.26976490888455,1292.87 192.85803599626882,1283.03 177.75340749773773,1280.17 C162.61886884376418,1277.31 142.54915454175543,1281.58 117.3847437626844,1299.78 C93.39679909769062,1317.12 74.02498842267667,1320.4 59.78775443198215,1318.01 C45.430879819516925,1315.61 35.73998945610302,1307.38 31.28337629515023,1300.77 C30.057059922001933,1298.96 27.604427175706217,1298.49 25.799847797333822,1299.72 C24.005238470775282,1300.94 23.526675983693302,1303.4 24.75299235684116,1305.21 C30.316281269171963,1313.44 41.821721062772134,1323.02 58.481677644320335,1325.81 C75.25130479582495,1328.62 96.70685630000862,1324.48 122.00087775266465,1306.2 L122.00087775266465,1306.2 C146.0984929876144,1288.77 163.98476594231136,1285.62 176.28780988104845,1287.94 z" fill="black"/>
<path id="Path (Stroke)_13" fill-rule="evenodd" clip-rule="evenodd" d="M2495.9998253901076,2579.17 C2495.9998253901076,2576.98 2494.234478165624,2575.21 2492.056809478313,2575.21 H9.678274013752954 C7.504802718254552,2575.21 5.7401035471393484,2576.98 5.7401035471393484,2579.17 C5.7401035471393484,2581.35 7.504802718254552,2583.12 9.678274013752954,2583.12 H2492.056809478313 C2494.234478165624,2583.12 2495.9998253901076,2581.35 2495.9998253901076,2579.17 z" fill="black"/>
<path id="Oval" d="M976.3744979197407,2575.82 C948.3088020627346,2575.82 925.5571438227025,2553 925.5571438227025,2524.86 C925.5571438227025,2496.71 948.3088020627346,2473.89 976.3744979197407,2473.89 C1004.4401937767474,2473.89 1027.1818819649652,2496.71 1027.1818819649652,2524.86 C1027.1818819649652,2553 1004.4401937767474,2575.82 976.3744979197407,2575.82 z" fill="black"/>
<path id="Oval_2" d="M1708.4175763367991,2575.82 C1680.3518804797934,2575.82 1657.6012192449425,2553 1657.6012192449425,2524.86 C1657.6012192449425,2496.71 1680.3518804797934,2473.89 1708.4175763367991,2473.89 C1736.4822751886247,2473.89 1759.2329364234745,2496.71 1759.2329364234745,2524.86 C1759.2329364234745,2553 1736.4822751886247,2575.82 1708.4175763367991,2575.82 z" fill="black"/>
<path id="Shape (Stroke)_3" fill-rule="evenodd" clip-rule="evenodd" d="M1020.6415279748419,798.172 C1018.5577871456713,797.533 1016.3544056947304,798.707 1015.7163223786215,800.795 L1011.9875230001063,813.016 C1011.9775529482915,813.042 1011.9675828964773,813.069 1011.9675828964773,813.095 L997.3514869368424,860.974 C996.7134036207334,863.062 997.8898697348103,865.274 999.9736105639805,865.913 C1002.0573513931511,866.552 1004.2607328440919,865.377 1004.8988161602009,863.288 L1018.4481165757152,818.865 L1196.4833318220974,858.192 C1198.606952858525,858.662 1200.710633791323,857.314 1201.1792262265913,855.181 C1201.6478186618592,853.048 1200.3018616669408,850.938 1198.1782406305135,850.468 L1020.7611685966126,811.278 L1023.2636516019793,803.112 C1023.9017349180887,801.024 1022.725268804012,798.812 1020.6415279748419,798.172 zM952.516163928332,984.622 C950.4224530473471,984.013 948.2390117000348,985.219 947.6308385393679,987.316 L812.1278643324132,1455.16 L350.9531476142272,1568.5 L443.39546803560006,1911.17 L871.4795827824172,1777.33 L871.5394030933026,1777.31 C908.1294932514602,1764.71 966.5539968827422,1736.88 1023.3533820683082,1694.25 C1080.12285709843,1651.65 1135.5463751336338,1594.05 1165.7656021825107,1521.8 C1175.386702183225,1501.91 1190.9499530652101,1451.14 1206.4135034290528,1396.22 C1221.9667842592228,1341.02 1237.549975244836,1281.11 1247.1611051937368,1242.78 C1247.6895179398898,1240.66 1246.4033812558564,1238.51 1244.2997003230573,1237.98 C1242.186049338445,1237.45 1240.0424881983897,1238.73 1239.5140754522363,1240.85 C1229.9129155551498,1279.12 1214.3496646731653,1338.96 1198.826293998437,1394.07 C1183.2530730646379,1449.36 1167.859313063495,1499.4 1158.6270450835348,1518.44 L1158.5771948244642,1518.54 L1158.5273445653925,1518.64 C1129.0558714025824,1589.19 1074.7589692223842,1645.79 1018.6275775083714,1687.92 C962.5360660016147,1730.02 904.8792563600272,1757.46 869.026950036121,1769.81 C869.0070099324929,1769.82 868.9970398806786,1769.82 868.9770997770501,1769.83 L448.8690264816022,1901.18 L360.67394813308357,1574.25 L818.4289370789955,1461.75 L955.1981078663543,989.523 C955.8062810270219,987.425 954.5999047575021,985.231 952.516163928332,984.622 z" fill="black"/>
<path id="Path (Stroke)_14" fill-rule="evenodd" clip-rule="evenodd" d="M1398.197420127233,2112.84 L1219.653732238326,1347.38 L1211.9668222895689,1349.18 L1390.5204802302896,2114.64 L1398.197420127233,2112.84 z" fill="black"/>
<path id="Path (Stroke)_15" fill-rule="evenodd" clip-rule="evenodd" d="M980.2628181272837,1004.59 L972.4861777121987,1003.3 L892.5064220585899,1490.14 L366.0478060609436,1603.01 L367.69286461028935,1610.75 L899.4156679658389,1496.75 L980.2628181272837,1004.59 z" fill="black"/>
<path id="Path (Stroke)_16" fill-rule="evenodd" clip-rule="evenodd" d="M1454.1792610640334,1120.25 C1452.005789768535,1120.36 1450.330821063747,1122.22 1450.440491633704,1124.4 L1499.6446913472028,2096.86 L1174.0407451883066,2135.6 L1164.220244151308,1527.48 C1164.180363944051,1525.3 1162.385754617493,1523.56 1160.2122833219946,1523.59 C1158.0288419746819,1523.63 1156.2940529590087,1525.43 1156.3339331662662,1527.61 L1166.2940149286644,2144.49 L1507.8939122182808,2103.84 L1458.3168325669308,1124 C1458.2071619969738,1121.82 1456.3627024113453,1120.14 1454.1792610640334,1120.25 z" fill="black"/>
<path id="Path" d="M1204.1203915117835,193.447 C1163.771591819668,227.488 1169.1155395920862,298.683 1176.8223896444713,330.025 C1190.1124687128158,330.025 1197.0017745164366,334.191 1198.776443739366,336.274 C1189.5840559666628,306.816 1180.9699311991842,265.158 1207.9688315120695,268.431 C1266.3634249879092,275.096 1297.2705856119655,263.078 1303.7012690321321,256.334 C1300.2416610526009,243.288 1254.5489135880678,150.897 1204.1203915117835,193.447 z" fill="black"/>
<path id="Path (Stroke)_17" fill-rule="evenodd" clip-rule="evenodd" d="M1385.017011628845,239.416 C1384.7577902816756,237.247 1382.80366012609,235.698 1380.640158882406,235.957 C1348.6263225069713,239.786 1300.1918107935294,245.706 1258.9257663345072,251.024 C1238.2877590790881,253.682 1219.4343910984132,256.191 1205.306827677675,258.214 C1198.2480309932128,259.225 1192.3457603191996,260.118 1187.9888476763883,260.849 C1185.8054063290763,261.215 1183.9908568988894,261.544 1182.585079593086,261.833 C1181.3288530644952,262.091 1180.0427163804618,262.387 1179.195261976254,262.741 C1177.1912815615974,263.589 1176.2540966910615,265.908 1177.0915810434553,267.921 C1177.9390354476632,269.934 1180.2520874685601,270.879 1182.2560678832167,270.031 L1182.2660379350311,270.03 C1182.3059181422882,270.017 1182.824360836627,269.858 1184.1703178315456,269.581 C1185.4365144119506,269.321 1187.1513633239952,269.009 1189.2849544122364,268.651 C1193.5521365887193,267.935 1199.3746468482188,267.053 1206.4135034290528,266.045 C1220.49121659072,264.03 1239.3047043641377,261.526 1259.9227715159282,258.869 C1301.168875871323,253.556 1349.5734774293214,247.638 1381.5673737011275,243.811 C1383.7308749448114,243.552 1385.2762329760142,241.584 1385.017011628845,239.416 z" fill="black"/>
<path id="Path (Stroke)_18" fill-rule="evenodd" clip-rule="evenodd" d="M1297.9585191871465,252.235 C1295.9146585652331,253.005 1294.8877432283691,255.286 1295.6554372180635,257.33 C1300.4011818816284,269.96 1305.7850098613028,292.293 1306.2835124520138,317.779 C1306.791985094538,343.231 1302.415132348099,371.523 1287.9784973211201,396.392 C1284.9974518286706,400.996 1281.6176042636532,404.565 1278.0283856105368,407.302 L1278.0084455069082,407.323 L1277.9785353514656,407.344 C1267.7791723455268,415.402 1256.6625645726808,417.099 1246.7523330693537,415.909 C1236.7324309960707,414.708 1228.0883960731492,410.565 1223.3227113059563,407.212 L1223.282831098699,407.187 L1223.2529209432566,407.163 C1216.5829562795486,402.693 1209.5241595950865,395.425 1204.6587743097514,388.72 C1201.2490165892907,383.879 1193.6119568996046,371.82 1189.9529478837885,361.992 C1189.1952239459088,359.946 1186.9220521322684,358.907 1184.8781915103552,359.672 C1182.8443009402556,360.436 1181.8074155515776,362.714 1182.5651394894574,364.76 C1186.5930404223989,375.561 1194.7086625991674,388.302 1198.2280908895846,393.306 L1198.2480309932128,393.329 L1198.2580010450272,393.352 C1203.54212850656,400.627 1211.239008507131,408.611 1218.8262179377468,413.713 C1224.5390576272898,417.717 1234.3794987679169,422.391 1245.8151481988177,423.763 C1257.3604681996753,425.149 1270.6804574234625,423.169 1282.833950584987,413.577 C1287.1808931759833,410.256 1291.1888540052967,405.986 1294.6484619848281,400.613 L1294.6983122438992,400.537 L1294.7481625029704,400.457 C1310.1718326595558,373.929 1314.6882661313941,344.033 1314.1698234370547,317.623 C1313.6513807427157,291.219 1308.0880918303858,267.997 1303.0332755605807,254.541 C1302.2655815708856,252.497 1299.992409757246,251.465 1297.9585191871465,252.235 z" fill="black"/>
<path id="Shape (Stroke)_4" fill-rule="evenodd" clip-rule="evenodd" d="M1200.012730164328,384.393 C1197.879139076087,383.923 1195.7754581432887,385.272 1195.3068657080207,387.405 L1181.4385236344517,450.623 C1180.9699311991842,452.756 1182.3158881941022,454.866 1184.4395092305294,455.335 C1186.5731003187711,455.805 1188.6767812515693,454.456 1189.1453736868375,452.323 L1203.013715760406,389.105 C1203.4823081956738,386.972 1202.1363512007551,384.862 1200.012730164328,384.393 zM1275.1869208434864,412.959 C1273.0234195998023,412.68 1271.0493493405884,414.211 1270.7701878897903,416.377 L1265.4162700655586,458.122 C1265.1371086147612,460.288 1266.6625265423354,462.27 1268.8260277860195,462.549 C1270.979558977889,462.827 1272.9635992889168,461.297 1273.2327906879007,459.131 L1278.586708512133,417.386 C1278.8658699629302,415.22 1277.3404520353563,413.238 1275.1869208434864,412.959 z" fill="black"/>
<path id="Path_2" d="M1240.4412902709578,419.217 C1253.4322677848759,424.225 1267.6495616719428,419.468 1273.1530302733868,416.463 L1269.9027933819543,438.75 C1231.1591720319268,450.769 1209.3247585588024,418.467 1204.2500021853687,399.436 C1210.8202663309346,404.861 1227.4602828088541,414.21 1240.4412902709578,419.217 z" fill="black"/>
<path id="Path (Stroke)_19" fill-rule="evenodd" clip-rule="evenodd" d="M1168.6768573122604,326.568 C1162.9440775190888,331.845 1161.0198575189454,340.49 1163.9610228041383,350.205 C1166.5532362758336,358.778 1173.4425420794532,363.493 1180.3019377276312,365.822 C1187.1214531685528,368.138 1194.5092615628832,368.341 1199.4643773145465,367.479 C1201.6179085064166,367.107 1203.0535959676633,365.06 1202.6847040505372,362.908 C1202.3058420815971,360.756 1200.2719515114982,359.313 1198.1283903714425,359.685 C1194.3696808374848,360.337 1188.3178593862579,360.196 1182.8343308884414,358.33 C1177.3807125460673,356.478 1173.1035603177706,353.174 1171.5083520274968,347.91 L1171.5083520274968,347.908 C1169.215240110228,340.324 1171.0497296440426,335.121 1174.0108350328635,332.399 C1177.001850577127,329.65 1182.106517106004,328.524 1188.2779791790008,331.107 C1190.2919296454713,331.949 1192.5950116145552,330.997 1193.432495966949,328.981 C1194.2699803193423,326.966 1193.3228253969924,324.649 1191.3188449823356,323.808 C1182.924061354769,320.295 1174.3896970018038,321.319 1168.6768573122604,326.568 z" fill="black"/>
<path id="Path (Stroke)_20" fill-rule="evenodd" clip-rule="evenodd" d="M1311.4081190845181,294.154 C1311.4081190845181,291.97 1309.6434199134028,290.2 1307.4699486179045,290.2 C1303.4619877885916,290.2 1296.8717835393975,291.226 1290.5208605337446,293.931 C1284.199847683534,296.628 1277.4999728643836,301.269 1274.3594065429065,308.899 L1274.3594065429065,308.901 C1272.774168304447,312.739 1272.1759651955947,317.725 1272.1759651955947,323.011 C1272.1659951437805,328.375 1272.7841383562613,334.384 1273.8708740040106,340.466 C1275.3863218797705,348.984 1277.8788348333235,357.873 1281.0592813620574,365.532 C1280.999461051172,365.5 1280.9396407402867,365.468 1280.879820429401,365.435 C1277.4501226053121,363.539 1273.0533297552452,360.074 1267.589741361057,353.039 C1266.2437843661382,351.316 1263.7712115162135,351.009 1262.056362604169,352.352 C1260.3315436403104,353.695 1260.0324420858842,356.18 1261.3684290289889,357.903 C1267.3305200138873,365.573 1272.5049769054635,369.836 1277.0812306881867,372.364 C1280.790089963073,374.411 1284.0702370099496,375.261 1286.373318979032,375.859 C1286.8817916215573,375.989 1287.3404140050106,376.107 1287.7392160775792,376.223 L1297.220735352895,378.941 L1292.225739393975,370.416 C1287.5697251967374,362.473 1283.6913750410092,350.599 1281.6275743154672,339.072 C1280.6106290304174,333.34 1280.0523061288218,327.81 1280.0622761806358,323.017 C1280.0622761806358,318.148 1280.6405391858605,314.362 1281.6475144190958,311.919 M1311.4081190845181,294.154 C1311.4081190845181,296.339 1309.6434199134028,298.109 1307.4699486179045,298.109 L1311.4081190845181,294.154 zM1307.4699486179045,298.109 C1304.5088432290838,298.109 1298.9555243685677,298.93 1293.601606544336,301.211 L1307.4699486179045,298.109 zM1293.601606544336,301.211 C1288.2377186682897,303.501 1283.6814049891948,306.987 1281.6475144190958,311.919 L1293.601606544336,301.211 z" fill="black"/>
<path id="Path (Stroke)_21" fill-rule="evenodd" clip-rule="evenodd" d="M1234.1202774207475,302.164 C1239.3047043641377,302.73 1243.7314073696475,305.263 1246.1042797014297,307.343 C1247.7393681989608,308.779 1250.2318811525138,308.609 1251.6675686137607,306.963 C1253.103256075007,305.317 1252.9337651941653,302.819 1251.2887066448209,301.383 C1247.9188291316166,298.433 1242.0364985612318,295.072 1234.9777018767697,294.301 C1227.7294742078375,293.508 1219.4643012538559,295.489 1211.857151719612,302.941 C1210.291853584781,304.467 1210.2619434293385,306.971 1211.7873613569132,308.534 C1213.3127792844873,310.097 1215.8052922380398,310.126 1217.360620321057,308.601 C1223.232980839628,302.856 1229.1352515136412,301.618 1234.1202774207475,302.164 z" fill="black"/>
<path id="Path (Stroke)_22" fill-rule="evenodd" clip-rule="evenodd" d="M1233.0435118248122,366.85 C1231.0295613583417,367.68 1230.062466332363,369.99 1230.8899806329428,372.011 C1232.594859493173,376.163 1236.3535690271312,381.811 1242.3256300638438,385.669 C1248.4572119295844,389.634 1256.73235493538,391.575 1266.8619275786198,388.33 C1268.9356983559753,387.665 1270.0822543146103,385.44 1269.4142608430575,383.359 C1268.7562374233194,381.279 1266.5329158687505,380.131 1264.459145091394,380.795 C1256.652594520866,383.296 1250.8201142095527,381.75 1246.5928122403268,379.021 C1242.2159594938873,376.186 1239.3844647786514,371.934 1238.1880585609458,369.007 C1237.3605442603666,366.986 1235.0574622912834,366.021 1233.0435118248122,366.85 z" fill="black"/>
<path id="Path (Stroke)_23" fill-rule="evenodd" clip-rule="evenodd" d="M1178.6867893337292,342.314 C1186.8821719250113,341.326 1192.7046821845113,346.953 1194.5092615628832,349.87 C1195.655817521518,351.726 1198.0885101641854,352.297 1199.9429398016289,351.145 C1201.7873993872581,349.994 1202.3556923406686,347.556 1201.209136382034,345.7 C1198.497282288568,341.318 1190.132408816445,332.968 1177.7396344113786,334.46 C1175.5861032195094,334.721 1174.0407451883066,336.69 1174.299966535476,338.859 C1174.5591878826456,341.027 1176.523288090045,342.574 1178.6867893337292,342.314 z" fill="black"/>
<path id="Path (Stroke)_24" fill-rule="evenodd" clip-rule="evenodd" d="M1234.768330788671,319.318 C1239.1252434314813,320.183 1242.9038930690683,323.256 1244.9976039500527,325.919 C1246.3335908931572,327.636 1248.8161337948957,327.934 1250.5309827069402,326.584 C1252.2458316189843,325.235 1252.5349631215968,322.748 1251.189006126678,321.031 C1248.3375713078137,317.39 1243.0534438462814,312.899 1236.2937487162453,311.558 C1229.165161669084,310.143 1221.209060321343,312.399 1213.8312219788268,320.875 C1212.4055045693942,322.521 1212.5749954502357,325.019 1214.2100839477666,326.455 C1215.8551424971108,327.891 1218.3476554506642,327.721 1219.7733728600967,326.075 C1225.5659729641536,319.422 1230.7803100629865,318.527 1234.768330788671,319.318 z" fill="black"/>
<path id="Path (Stroke)_25" fill-rule="evenodd" clip-rule="evenodd" d="M1295.7052874771346,318.174 C1300.0721701717591,319.04 1303.8508198093461,322.114 1305.94453069033,324.778 C1307.2904876852488,326.494 1309.7730305869875,326.79 1311.4779094472176,325.439 C1313.1927583592624,324.087 1313.491859913689,321.601 1312.1359328669557,319.885 C1309.2844980480913,316.246 1304.0003705865588,311.756 1297.2406754565227,310.415 C1290.1021183575476,309 1282.1460170098064,311.256 1274.7781487191041,319.733 C1273.3524313096716,321.379 1273.5219221905134,323.877 1275.166980739858,325.313 C1276.8020692373889,326.748 1279.2945821909416,326.577 1280.730269652188,324.93 C1286.512899704431,318.278 1291.7272368032638,317.384 1295.7052874771346,318.174 z" fill="black"/>
<path id="Path (Stroke)_26" fill-rule="evenodd" clip-rule="evenodd" d="M870.3330268237823,626.588 C868.4586570827107,625.479 866.0359344918571,626.106 864.9292587404799,627.988 L868.3290464091261,629.996 L871.728834077772,632.003 C872.83550982915,630.121 872.2073965648549,627.696 870.3330268237823,626.588 zM1349.962309450076,1136.81 C1349.9922196055184,1137.27 1349.9922196055184,1137.73 1349.9722795018897,1138.19 C1349.8127586728624,1141.6 1348.2474605380314,1144.41 1345.9443785689484,1146.47 C1341.5376156670666,1150.39 1334.5186991898613,1151.6 1327.9783451997384,1150.66 L1327.828794422525,1150.63 L1117.0020787592002,1103.37 L894.2711212297061,951.396 L894.2212709706349,951.363 C890.6519924211469,948.776 886.7636722136043,946.02 882.6460408143347,943.101 C860.1536039214726,927.164 830.7818312768042,906.349 809.0471183218218,881.485 C796.1458712742316,866.726 785.7072270247519,850.304 781.0013625684438,832.338 C776.2655879566931,814.268 777.382233759885,794.855 787.2426150041407,774.391 C806.175743399329,735.094 825.597404333414,698.5 840.2832906557481,671.736 C847.6212487910079,658.352 853.782740812191,647.421 858.1097432995592,639.834 C860.273244543243,636.04 861.9781234034732,633.082 863.1446194657362,631.071 C863.7228824709603,630.065 864.1715348026003,629.296 864.4706363570261,628.778 C864.6201871342397,628.519 864.73982775601,628.322 864.8195881705235,628.19 L864.8993485850372,628.04 L864.9292587404799,628.002 L864.9292587404799,627.992 L864.9292587404799,627.99 C864.9292587404799,627.989 864.9292587404799,627.988 868.3290464091261,629.996 C871.728834077772,632.003 871.728834077772,632.002 871.728834077772,632.003 L871.728834077772,632.005 L871.7188640259582,632.014 L871.6191635078161,632.194 C871.5394030933026,632.323 871.4297325233462,632.516 871.2801817461329,632.772 C870.9810801917066,633.283 870.5324278600671,634.045 869.9541648548425,635.044 C868.7976388443943,637.04 867.1027300359784,639.983 864.9491988441081,643.76 C860.642136460369,651.315 854.5105545946287,662.208 847.1925365629966,675.549 C832.5465304479198,702.235 813.1946598765344,738.7 794.3412918958597,777.833 C785.3084249521834,796.586 784.3612700298338,814.064 788.6284522063162,830.327 C792.9155744864275,846.694 802.5466445389561,862.046 814.9792991512783,876.271 C836.0260785310795,900.356 864.4806064088405,920.53 887.0129235089596,936.502 C891.1704351154856,939.452 895.1285456857279,942.258 898.797524753358,944.919 L1120.192495339748,1095.98 L1329.244541780144,1142.85 C1334.409028619905,1143.55 1338.686180848202,1142.36 1340.700131314673,1140.55 C1341.6173760815807,1139.74 1342.0460883095916,1138.85 1342.095938568663,1137.82 C1342.1457888277337,1136.7 1341.7669268587933,1134.94 1340.1218683094485,1132.49 L1345.5954267554505,1127 C1349.40398654848,1129.59 1356.024100953116,1129.97 1360.680115150354,1127.37 C1362.863556497666,1126.15 1364.4886749433826,1124.33 1365.2663389848908,1121.85 C1366.0539730782139,1119.32 1366.0838832336565,1115.67 1364.2095134925844,1110.59 L1361.1088273783646,1102.23 L1369.3640302805322,1105.55 C1373.0828596072338,1107.04 1377.6790534935844,1106.5 1380.6700690378484,1104.29 C1382.0957864472807,1103.23 1383.1526119395874,1101.81 1383.6610845821117,1099.99 C1384.1695572246367,1098.17 1384.189497328265,1095.67 1383.0728515250735,1092.38 C1382.7438398152046,1091.41 1381.068871110417,1088.13 1377.728903752656,1085.66 M1349.962309450076,1136.81 C1354.8875150462964,1137.51 1360.191582611457,1136.7 1364.518585098825,1134.28 C1368.2374144255261,1132.2 1371.3480705915606,1128.86 1372.793728104621,1124.2 C1373.7109728715288,1121.24 1373.9103739078125,1117.93 1373.332110902589,1114.29 C1377.5992930790717,1114.4 1381.9163255146248,1113.19 1385.3460233387138,1110.66 C1388.0778175358078,1108.64 1390.241318779492,1105.77 1391.2582640645412,1102.12 C1392.265239297777,1098.47 1392.065838261493,1094.32 1390.5404203339187,1089.82 L1390.5404203339187,1089.82 L1390.5404203339187,1089.81 C1389.76275629241,1087.54 1387.2004529761573,1082.85 1382.404858053521,1079.29 L1382.404858053521,1079.29 C1380.8096497632478,1078.11 1378.018035255268,1076.4 1374.8276186747207,1074.55 L1392.0159880024219,1075.89 L1392.0159880024219,1075.89 C1399.7527482102503,1076.49 1406.3030722521873,1070.53 1408.0877115269313,1063.75 C1409.0248963974673,1060.2 1408.7457349466692,1056.21 1406.612143858428,1052.56 C1404.4984928738145,1048.93 1400.7796635471143,1046.01 1395.5453863446528,1044.07 L1395.3360152565542,1043.99 L1281.2287722428987,1016.21 L1331.2485221948,997.11 L1331.388102920199,997.042 C1335.0570819878285,995.289 1338.1777082056767,992.217 1340.3212693457326,988.723 C1342.4648304857883,985.228 1343.8406976361498,981.009 1343.6412965998654,976.781 C1343.4418955635813,972.436 1341.5774958743239,968.186 1337.5196847859393,965.106 C1333.5815143193256,962.127 1327.968375147924,960.518 1320.6603271681072,960.439 C1307.1209968044075,959.427 1176.0148154475203,953.771 1143.5024764813754,953.628 L942.9548842385022,818.524 L1004.4701039321899,715.694 C1005.596719787196,713.821 1004.9885466265287,711.391 1003.1241469372713,710.267 C1001.2497771961994,709.144 998.827054605346,709.751 997.7104088021546,711.624 L932.3367790563668,820.899 L1141.09969399415,961.535 H1142.3060702636699 C1172.505357208918,961.535 1307.4300684106477,967.354 1320.191734732839,968.335 L1320.331315458238,968.346 L1320.4609261318224,968.347 C1326.831789241104,968.4 1330.6204089305045,969.796 1332.7639700705604,971.417 C1334.787890588845,972.954 1335.6652551484963,974.932 1335.7649556666383,977.144 C1335.8746262365942,979.472 1335.1069322468998,982.137 1333.611424474768,984.572 C1332.145826858079,986.958 1330.1518164952372,988.833 1328.1278959769515,989.836 L1254.678524261653,1017.89 L1393.0229632356575,1051.57 C1396.8614331841286,1053.03 1398.845473495157,1054.91 1399.8025984693213,1056.55 C1400.7696934952996,1058.21 1400.919244272513,1060 1400.460621889059,1061.73 C1399.4636167076378,1065.54 1395.8743980545214,1068.25 1392.6241611630887,1068 C1392.6241611630887,1068 1392.6241611630887,1068 1392.6241611630887,1068 L1357.160686859937,1065.24 L1355.0270957716953,1072.69 C1361.1786177410643,1075.93 1373.9502541150698,1082.87 1377.728903752656,1085.66 " fill="black"/>
<path id="Oval_3" d="M1232.4453087159602,329.091 C1228.9159103737286,329.091 1226.0545055030502,326.22 1226.0545055030502,322.679 C1226.0545055030502,319.138 1228.9159103737286,316.267 1232.4453087159602,316.267 C1235.9846771100051,316.267 1238.846081980684,319.138 1238.846081980684,322.679 C1238.846081980684,326.22 1235.9846771100051,329.091 1232.4453087159602,329.091 z" fill="black"/>
<path id="Oval_4" d="M1293.4022055080516,327.944 C1289.8728071658204,327.944 1287.0014322433271,325.073 1287.0014322433271,321.532 C1287.0014322433271,317.99 1289.8728071658204,315.119 1293.4022055080516,315.119 C1296.9316038502825,315.119 1299.7930087209616,317.99 1299.7930087209616,321.532 C1299.7930087209616,325.073 1296.9316038502825,327.944 1293.4022055080516,327.944 z" fill="black"/>
<path id="Path (Stroke)_27" fill-rule="evenodd" clip-rule="evenodd" d="M1191.7674973139751,339.521 C1191.0895337906088,337.445 1188.8662122360397,336.313 1186.7924414586835,336.993 C1184.5990300595565,337.715 1181.7376251888775,339.57 1180.3617580385169,342.981 C1178.9161005254562,346.559 1179.5043335824946,350.842 1182.3158881941022,355.529 C1183.4425040491087,357.401 1185.865226639962,358.005 1187.7296263292192,356.878 C1189.5940260184766,355.752 1190.19222912733,353.322 1189.075583324138,351.451 C1187.0815729612962,348.137 1187.4404948266074,346.507 1187.669806018334,345.944 C1187.9689075727606,345.214 1188.666811199755,344.701 1189.2450742049791,344.51 C1191.3188449823356,343.83 1192.445460837342,341.597 1191.7674973139751,339.521 z" fill="black"/>
<path id="Path_3" d="M1371.557441679659,457.613 L1274.6086578382622,445.904 C1267.7293220864553,455.181 1247.5100570072339,472.752 1224.5889078863613,467.643 C1201.6677587654876,462.535 1186.114477935317,442.829 1184.7585508885845,434.241 C1168.1085643588501,432.666 1132.724850470212,429.464 1095.835658757628,424.252 C1020.0233847623609,413.926 965.1880997841952,463.759 947.2519765704276,489.967 L845.457747547324,641.347 L988.1989793713963,745.787 L1037.3413647636469,671.858 L1012.7651870416141,810.328 L1201.12937596752,853.747 L1259.64361006513,498.992 L1489.1641728801028,540.845 C1446.2929500789915,480.728 1392.9033226138863,460.308 1371.557441679659,457.613 z" fill="#FECB4B"/>
<path id="Path (Stroke)_28" fill-rule="evenodd" clip-rule="evenodd" d="M1058.0391923299512,589.734 C1055.8956311898949,589.335 1053.8318304643537,590.751 1053.4330283917843,592.899 L1043.2835156449175,647.621 C1042.8847135723486,649.768 1044.3004609299664,651.833 1046.4440220700224,652.233 C1048.5776131582636,652.632 1050.6414138838056,651.216 1051.0402159563737,649.068 L1061.1897287032418,594.346 C1061.58853077581,592.199 1060.1727834181925,590.134 1058.0391923299512,589.734 z" fill="black"/>
<path id="Shape (Stroke)_5" fill-rule="evenodd" clip-rule="evenodd" d="M1290.2915493420176,1052.22 C1289.7531665440501,1054.33 1291.0193631244547,1056.49 1293.1330141090682,1057.03 L1359.952301367916,1074.16 C1362.0659523525292,1074.7 1364.2095134925844,1073.43 1364.7578663423665,1071.31 C1365.2962491403339,1069.2 1364.020082508115,1067.04 1361.9064315235019,1066.5 L1295.0871442646533,1049.37 C1292.9734932800402,1048.83 1290.8299321399852,1050.1 1290.2915493420176,1052.22 zM1271.468091516785,1066.61 C1270.5907269571346,1068.6 1271.4880316204137,1070.94 1273.482041983256,1071.82 L1365.0170876895356,1112.46 C1367.011098052378,1113.34 1369.3341201250896,1112.44 1370.2214547365543,1110.44 C1371.0988192962052,1108.45 1370.2015146329256,1106.11 1368.2075042700833,1105.23 L1276.6724585638033,1064.59 C1274.6784482009614,1063.71 1272.345456076436,1064.61 1271.468091516785,1066.61 zM1256.1540919301558,1086.33 C1255.177026852363,1088.28 1255.9546908938714,1090.66 1257.898850997643,1091.64 L1344.847672869385,1135.58 C1346.7918329731563,1136.56 1349.1647053049385,1135.78 1350.1417703827317,1133.83 C1351.1188354605247,1131.88 1350.3411714190163,1129.5 1348.3970113152445,1128.52 L1261.4481894435023,1084.58 C1259.5040293397312,1083.59 1257.1311570079486,1084.38 1256.1540919301558,1086.33 z" fill="black"/>
<path id="Path (Stroke)_29" fill-rule="evenodd" clip-rule="evenodd" d="M1257.5598692359595,495.489 L1177.8493049813355,957.858 L1185.6159753446068,959.206 L1263.980582604312,504.65 L1961.9709490499301,627.471 L1885.9054357385817,1167.18 L1370.7199573272649,1110.29 L1369.8525628194286,1118.16 L1892.6441937598074,1175.88 L1970.847286180123,621.002 L1257.5598692359595,495.489 z" fill="black"/>
<path id="Shape (Stroke)_6" fill-rule="evenodd" clip-rule="evenodd" d="M1583.2346027627366,838.84 L1264.6086958686078,497.366 L1258.846005919993,502.77 L1576.1807911041813,842.856 L1338.8157915217867,978.02 L1342.714081781144,984.898 L1581.723142907702,848.796 L1884.4916823913268,1173.27 L1890.249387314034,1167.87 L1588.7759575610755,844.779 L1968.3557702317516,628.631 L1964.462464998302,621.753 L1583.2346027627366,838.84 z" fill="black"/>
<path id="Path_4" d="M1459.892100753576,1223.08 L1453.0725853126553,1127.47 L1371.3879507988172,1116.27 C1368.5365159799526,1132.24 1353.5216179477497,1135.43 1346.3730907969593,1135.02 C1346.1836598124894,1138.19 1338.5665402264312,1144.54 1337.1208827133705,1145.59 C1336.0540871692497,1146.38 1215.3267297509578,1121.13 1152.86435513492,1107.99 L1158.7765958607474,1120.12 L1459.892100753576,1223.08 z" fill="black"/>
<path id="Path_5" d="M1684.3698113609205,2388.76 H1212.036612652268 V2178.84 H1366.2234639590554 L1361.0888872747362,2228.17 C1386.2532980538074,2231.66 1440.3507991977206,2239.37 1455.5650982662087,2242.33 C1607.2055983396453,2263.98 1671.2891033806745,2348.97 1684.3698113609205,2388.76 z" fill="black"/>
<path id="Shape (Stroke)_7" fill-rule="evenodd" clip-rule="evenodd" d="M1376.6720782603493,2116.61 L1368.8356175343795,2115.79 L1362.6741255131965,2174.89 H1215.9747831188815 V2134.04 H1208.0884721338402 V2392.71 H1689.8224326981133 L1688.11555982752,2387.52 C1674.511424127028,2346.14 1609.086947116988,2260.29 1456.2231216859468,2238.43 C1441.4774150527269,2235.58 1391.7467966034383,2228.45 1365.4059197102897,2224.78 L1376.6720782603493,2116.61 zM1215.9747831188815,2182.8 H1361.8565812644308 L1356.7718548391824,2231.56 L1360.550504476769,2232.09 C1385.764765514911,2235.59 1439.7326559852397,2243.28 1454.817344380142,2246.21 L1454.917044898285,2246.23 L1455.0067753646126,2246.25 C1598.8616619763322,2266.79 1662.4925266649952,2344.67 1678.7167919822623,2384.8 H1215.9747831188815 V2182.8 z" fill="black"/>
<path id="Path_6" d="M1050.6214737801772,2278 L1208.706615346321,2393.05 V2272.51 L1050.6214737801772,2278 z" fill="black"/>
<path id="Path_7" d="M211.38239226707438,2164.75 L122.98791288227194,1699.36 L328.5703812913216,1660.07 L357.4237112416505,1812 L308.1616852276293,1816.17 C309.44782191166297,1841.6 312.0200952797294,1896.36 311.9802150724731,1911.9 C319.14868232689116,2065.36 247.9026920625328,2144.4 211.38239226707438,2164.75 z" fill="black"/>
<path id="Shape (Stroke)_8" fill-rule="evenodd" clip-rule="evenodd" d="M333.17654522948715,1663.18 L376.95504274569197,1654.33 L375.38974461086013,1646.58 L327.7927172498128,1656.2 L118.3717788922917,1696.21 L208.53095744820973,2170.86 L213.29664221540276,2168.2 C251.27256957573618,2147.04 323.1167629489472,2066.52 315.92835559090054,1911.81 C315.9482956945291,1896.76 313.6153035700033,1846.42 312.2892866787133,1819.79 L420.34470824114254,1810.64 L419.67671476958975,1802.76 L360.6340679258268,1807.76 L333.17654522948715,1663.18 zM325.4397850216588,1664.7 L352.7278168371567,1808.43 L304.0241137247315,1812.55 L304.2135447092018,1816.37 C305.5096514450489,1841.86 308.08192481311573,1896.48 308.042044605859,1911.89 L308.042044605859,1911.99 L308.042044605859,1912.08 C314.84161994315156,2057.66 250.47496543059964,2134.92 214.2039169304961,2158.43 L127.59407682043748,1702.5 L325.4397850216588,1664.7 z" fill="black"/>
<path id="Path (Stroke)_30" fill-rule="evenodd" clip-rule="evenodd" d="M1332.0261862363088,2274.43 C1542.5468213089378,2274.43 1732.9768049707477,2287.15 1870.6233403177578,2307.65 C1939.5074253073294,2317.91 1994.8282518088467,2330.07 2032.7573199256537,2343.44 L2032.759313936017,2343.44 C2051.771205740537,2350.13 2065.9466254099834,2356.96 2075.2157825816557,2363.72 L2075.216779586838,2363.72 C2084.7112599295124,2370.63 2087.469973266504,2376.23 2087.469973266504,2380.23 C2087.469973266504,2384.23 2084.7112599295124,2389.83 2075.216779586838,2396.75 L2075.2157825816557,2396.75 C2065.9466254099834,2403.5 2051.771205740537,2410.34 2032.759313936017,2417.03 L2032.7573199256537,2417.03 C1994.8282518088467,2430.39 1939.5084223125107,2442.55 1870.6233403177578,2452.82 C1732.9768049707477,2473.32 1542.545824303756,2486.03 1332.0261862363088,2486.03 C1121.4985721274097,2486.03 931.0805525277765,2473.32 793.424047128952,2452.82 C724.5409591445621,2442.55 669.2271116793141,2430.39 631.2910645262375,2417.03 L631.2910645262375,2417.03 C612.2781757165357,2410.34 598.1007620367266,2403.5 588.8286138495092,2396.75 L588.8286138495092,2396.75 C579.3371245223796,2389.84 576.5754201698428,2384.23 576.5754201698428,2380.23 C576.5754201698428,2376.23 579.3371245223796,2370.63 588.8286138495092,2363.72 L588.8286138495092,2363.72 C598.1007620367266,2356.96 612.2781757165357,2350.13 631.2910645262375,2343.44 L631.2910645262375,2343.44 C669.2271116793141,2330.07 724.5409591445621,2317.91 793.424047128952,2307.65 C931.0805525277765,2287.15 1121.4985721274097,2274.43 1332.0261862363088,2274.43 zM1871.7818603385695,2299.82 C1733.6457954474813,2279.25 1542.8100306768322,2266.52 1332.0261862363088,2266.52 C1121.2393507802406,2266.52 930.4025890044094,2279.25 792.2675211185039,2299.82 L792.8457841237275,2303.73 L792.2675211185039,2299.82 C723.2049722014577,2310.11 667.3128617309853,2322.36 628.6789109509142,2335.97 C609.3669205867857,2342.77 594.3719626582114,2349.91 584.202509807715,2357.32 M584.202509807715,2403.15 C594.3719626582114,2410.55 609.3669205867857,2417.7 628.6789109509142,2424.49 C667.3128617309853,2438.1 723.2049722014577,2450.34 792.2675211185039,2460.64 L792.8457841237275,2456.73 L792.2675211185039,2460.64 C930.4025890044094,2481.21 1121.2393507802406,2493.94 1332.0261862363088,2493.94 C1542.8100306768322,2493.94 1733.6457954474813,2481.21 1871.7818603385695,2460.64 L1871.7828573437505,2460.64 C1940.8503912867034,2450.34 1996.7444957675386,2438.1 2035.3714675113397,2424.49 C2054.683457875469,2417.69 2069.6804098144057,2410.55 2079.84886565972,2403.15 C2090.022306530942,2395.74 2095.3562842515457,2388.08 2095.3562842515457,2380.23 C2095.3562842515457,2372.38 2090.0233035361243,2364.72 2079.8498626649025,2357.32 C2069.6804098144057,2349.91 2054.683457875469,2342.77 2035.3694735009767,2335.97 C1996.7425017571757,2322.36 1940.8493942815226,2310.11 1871.7818603385695,2299.82 L1871.202600328163,2303.73 L1871.7818603385695,2299.82 " fill="black"/>
</g></g></svg>